<svg xmlns="http://www.w3.org/2000/svg" xmlns:xlink="http://www.w3.org/1999/xlink" viewBox="0 0 1121.71 997.67"><defs><style>.cls-1{fill:url(#linear-gradient);}.cls-2{fill:url(#linear-gradient-2);}.cls-3{fill:url(#linear-gradient-3);}.cls-4{fill:#fff;}.cls-5{fill:#d73f27;}</style><linearGradient id="linear-gradient" x1="1112.6" y1="-164.38" x2="-35.54" y2="628.5" gradientUnits="userSpaceOnUse"><stop offset="0" stop-color="#df4427"></stop><stop offset="1" stop-color="#cf3527"></stop></linearGradient><linearGradient id="linear-gradient-2" x1="1277.82" y1="74.86" x2="129.68" y2="867.75" xlink:href="#linear-gradient"></linearGradient><linearGradient id="linear-gradient-3" x1="1225.45" y1="-0.97" x2="77.31" y2="791.91" xlink:href="#linear-gradient"></linearGradient></defs><g id="Layer_2" data-name="Layer 2"><g id="Layer_2-2" data-name="Layer 2"><path class="cls-1" d="M873.15,66.07Q847.48,54.52,821.35,45a748.24,748.24,0,0,0-74.76-22.95q-33-8.25-66.52-13.43Q649.88,4,619.3,1.83q-28.09-2-56.47-1.8h-1.17q-26.37-.22-52.51,1.4Q483.68,3,458.48,6.32q-24.15,3.18-48,8-23,4.59-45.68,10.64Q342.83,30.78,321.18,38q-21,7-41.68,15.27-15.17,6.06-30.15,12.79l-9.85,4.43L214.44,81.76,218,109.13l1.39,10.58c.25,1.89,4,29.63,16.25,73.26a869.85,869.85,0,0,0,37.65,106.48l.42,1a895.91,895.91,0,0,0,79,145.14l25-25,29.44-29.43,20-20c-13.28-21-24.79-41.31-34.73-60.54-8.84-17.11-16.44-33.34-22.93-48.34a778.23,778.23,0,0,1-27.5-73.4c-5.42-17.08-9.53-32.13-12.58-44.54,7.35-2.77,14.73-5.37,22.14-7.87q21.64-7.29,43.63-13,22.89-5.94,46.08-10.19,24.3-4.42,48.9-6.93,25.92-2.66,52.15-3.19c6.29-.13,12.58-.2,18.9-.15H562c11.92-.08,23.8.2,35.65.76q30.1,1.44,59.81,5.68a636.29,636.29,0,0,1,66.2,13.06,643.55,643.55,0,0,1,69.43,21.86c-3,12.29-7.07,27.16-12.41,44-4.37,13.8-9.63,28.95-15.88,45.11-3.59,9.28-7.49,18.89-11.78,28.79q-2.94,6.78-6.18,13.9C741,289,734.43,302.55,727,316.65c-6.55,12.42-13.75,25.27-21.65,38.43q-5.3,8.81-11,17.78l74.37,74.37q3.62-5.39,7.1-10.72,12.26-18.78,22.89-37,11.63-19.84,21.41-38.71c7.32-14,13.92-27.59,19.85-40.51q4.92-10.73,9.24-20.85,4.71-11,8.91-21.62c6.22-15.69,11.64-30.61,16.33-44.58,5.79-17.24,10.48-33,14.26-47,5.79-21.38,9.45-38.48,11.63-50,1.87-9.91,2.66-15.71,2.77-16.54l5-37.95Z"></path><path class="cls-2" d="M560.46,475.8l-.2.2-13.54,13.55-14,14L517.27,519l-29.46,29.45-27.87,27.88a848.38,848.38,0,0,0,69.09,62l32.22,25.85L577,651.53l16.47-13.21q8-6.45,15.78-13,16.14-13.62,31.09-27.57,10.9-10.15,21.23-20.44l.2-.2L589,504.31Z"></path><path class="cls-3" d="M693,411.57,678.36,397l-45.71-45.71L572.31,290.9l-12.45-12.45L512,326.34l-60.34,60.33L443,395.3l-17.31,17.31L396.27,442l-5,5-21.57,21.57A1061.84,1061.84,0,0,0,440,555.4l11.62-11.62L512,483.44l47.88-47.88L572.31,448l60.34,60.33,47.48,47.48c20.62-22.77,47.62-53.68,72-85.1L739.91,458.5Z"></path><polygon class="cls-4" points="223.2 734.76 165.11 872.77 107.02 734.76 78.91 734.76 112.16 813.37 87.09 872.62 28.77 734.76 0 734.76 74.86 911.31 98.67 911.31 126.01 846.24 153.53 911.31 177.34 911.31 251.96 734.76 223.2 734.76"></polygon><path class="cls-4" d="M321.74,799.23c-9.18-7.78-21.06-11.72-35.32-11.72-22.58,0-38.9,7.89-48.5,23.44l-2.61,4.23L254.62,832l3.51-6.3c5.23-9.37,14.2-13.92,27.41-13.92,7.69,0,13.9,1.83,18.45,5.44,4.2,3.32,6.25,8.47,6.25,15.74v8.75l-15-2.85c-20.24-4-35.16-2.54-45.62,4.52-10.68,7.2-16.1,17.52-16.1,30.67,0,11.37,3.71,20.89,11,28.3s16.83,11.19,28.23,11.19c13.26,0,26.11-4.62,38.32-13.75l.43,11.55H336V833.58C336,818.8,331.21,807.24,321.74,799.23ZM260,873.36c0-5.26,2.08-8.82,6.75-11.52,2.17-1.26,5.82-2.42,11.86-2.42a74.93,74.93,0,0,1,14.54,1.65l17.12,3.63v7.12c-11.57,11.29-23.13,17-34.37,17-5,0-8.84-1.38-11.68-4.22S260,878.09,260,873.36Z"></path><path class="cls-4" d="M406.13,886.25a9.24,9.24,0,0,1-7.18,2.8c-3.07,0-5.29-.75-6.8-2.3s-2.29-4.14-2.29-7.67V812.85h28.35V789.71H389.86V752.34H363.64v37.37H348.48v23.14h15.16v66.23c0,10.07,3.24,18.41,9.63,24.8s14.88,9.63,25.24,9.63c9.92,0,18-3.09,24.14-9.19l3.76-3.76-15.71-19.1Z"></path><path class="cls-4" d="M478.44,886.25a9.26,9.26,0,0,1-7.19,2.8c-3.07,0-5.29-.75-6.79-2.3s-2.3-4.14-2.3-7.67V812.85h28.36V789.71H462.16V752.34H436v37.37H420.78v23.14H436v66.23c0,10.07,3.24,18.41,9.62,24.8s14.88,9.63,25.24,9.63c9.92,0,18.05-3.09,24.14-9.19l3.76-3.76L483,881.46Z"></path><path class="cls-4" d="M548.55,886.25c-1.82,1.91-4.17,2.8-7.41,2.8-4.51,0-6.1-1.68-6.62-2.24-1.49-1.57-2.25-4.17-2.25-7.74L532,734.76h-26V879.08c0,10.07,3.23,18.41,9.62,24.8s14.88,9.63,25.24,9.63c9.92,0,18.05-3.09,24.14-9.19l3.76-3.76-15.71-19.1Z"></path><path class="cls-4" d="M622.9,787.51c-17.36,0-31.56,6.14-42.2,18.25-10.44,11.9-15.74,27-15.74,44.75s5.3,32.85,15.74,44.74c10.64,12.11,24.84,18.26,42.2,18.26,21.49,0,37.68-9.12,48.14-27.09l2.68-4.6-19.43-13.94L651,873c-7,10.77-16,16-27.61,16-9.53,0-16.94-3-22.65-9a36.5,36.5,0,0,1-9.16-18.82h86.72l.58-5.21a60.8,60.8,0,0,0,.26-6.36c0-17.94-5.11-32.88-15.19-44.4C653.63,793.47,639.83,787.51,622.9,787.51Zm-21.72,32.9c5.64-5.83,12.81-8.66,21.94-8.66,8.94,0,15.92,2.81,21.33,8.59a35.83,35.83,0,0,1,8.83,17.72H592A36,36,0,0,1,601.18,820.41Z"></path><path class="cls-4" d="M744.88,787.51c-17.23,0-31.32,6.15-41.89,18.27-10.36,11.89-15.62,26.94-15.62,44.73s5.26,32.84,15.62,44.72c10.57,12.13,24.66,18.28,41.89,18.28,12.91,0,24.14-3.85,33.38-11.45l2.14-1.75V867.68l-10.18,11.19c-6.37,7-14.23,10.4-24,10.4-10,0-17.76-3.49-23.75-10.65-6.26-7.48-9.3-16.68-9.3-28.11s3-20.8,9.28-28.2c6-7.11,13.77-10.56,23.77-10.56a30.94,30.94,0,0,1,24,10.62l10.18,11.16V800.64l-2.21-1.75A52.3,52.3,0,0,0,744.88,787.51Z"></path><path class="cls-4" d="M844.88,787.51c-17.2,0-31.46,6.2-42.39,18.44-10.76,12-16.22,27-16.22,44.56s5.46,32.51,16.22,44.56c10.93,12.23,25.19,18.44,42.39,18.44s31.48-6.2,42.48-18.43c10.84-12,16.34-27,16.34-44.57s-5.5-32.53-16.34-44.58C876.36,793.71,862.07,787.51,844.88,787.51Zm23.52,90.67c-6,7.17-13.68,10.65-23.52,10.65s-17.54-3.48-23.53-10.65c-6.26-7.48-9.3-16.53-9.3-27.67s3-20.36,9.28-27.76c6-7.11,13.69-10.56,23.55-10.56s17.55,3.45,23.54,10.56c6.25,7.4,9.28,16.48,9.28,27.76S874.66,870.7,868.4,878.18Z"></path><path class="cls-4" d="M974.1,787.51a41.08,41.08,0,0,0-21.86,6.37h0a50.36,50.36,0,0,0-6.44,4.71l-.33-8.88H920.55v121.6h26.22v-70c0-8.32,2.66-15.11,8.13-20.77s11.49-8.32,18.54-8.32a29.81,29.81,0,0,1,12.48,2.31l4.62,2.15L1003.21,797l-4.7-3.22C992.42,789.63,984.2,787.51,974.1,787.51Z"></path><path class="cls-4" d="M1106.23,805.92c-10.49-12.22-24.34-18.41-41.14-18.41-13.25,0-24.54,3.91-33.71,11.67v-9.47h-26V966.25h26V901.83c9.17,7.76,20.46,11.68,33.71,11.68,16.81,0,30.66-6.24,41.15-18.54,10.27-12,15.47-27,15.47-44.46C1121.71,832.88,1116.5,817.88,1106.23,805.92Zm-43.12,6.27c9.85,0,17.55,3.45,23.55,10.56,6.24,7.4,9.27,16.48,9.27,27.76s-3,20.19-9.29,27.67c-6,7.17-13.69,10.65-23.53,10.65a29,29,0,0,1-20.53-7.9c-5.81-5.37-9.47-12.13-11.2-20.66V840.75c1.73-8.53,5.39-15.3,11.2-20.67A28.94,28.94,0,0,1,1063.11,812.19Z"></path><path class="cls-4" d="M444.92,974a26.38,26.38,0,0,1,0-35.07,22,22,0,0,1,16.8-7.15,21.06,21.06,0,0,1,13.84,5v5.32a18.36,18.36,0,0,0-13.84-6.22,18.06,18.06,0,0,0-13.91,5.93,22.33,22.33,0,0,0,0,29.24,18.95,18.95,0,0,0,27.75-.23v5.26a21,21,0,0,1-13.84,5.06A22,22,0,0,1,444.92,974Z"></path><path class="cls-4" d="M461.72,981.84a22.75,22.75,0,0,1-17.28-7.36h0a27.05,27.05,0,0,1,0-36,22.74,22.74,0,0,1,17.28-7.35A21.78,21.78,0,0,1,476,936.32l.24.2v7.28l-1.13-1.21a17.8,17.8,0,0,0-13.37-6,17.48,17.48,0,0,0-13.43,5.72,21.65,21.65,0,0,0,0,28.34,18.3,18.3,0,0,0,26.79-.22l1.14-1.23v7.24l-.24.19A21.79,21.79,0,0,1,461.72,981.84Zm-16.32-8.25a21.49,21.49,0,0,0,16.32,6.94,20.48,20.48,0,0,0,13.19-4.72v-3.36a19.63,19.63,0,0,1-27.59-.92,23,23,0,0,1,0-30.12,19.52,19.52,0,0,1,27.59-.84v-3.44a20.49,20.49,0,0,0-13.19-4.65,21.45,21.45,0,0,0-16.32,6.94,25.73,25.73,0,0,0,0,34.17Z"></path><path class="cls-4" d="M511,982.15a15.69,15.69,0,0,1-3.62,10.73Q503.76,997,496.65,997a18.38,18.38,0,0,1-11.28-3.53v-4.74a16,16,0,0,0,11.54,4.49c3.37,0,5.86-1,7.47-3s2.4-4.68,2.4-8.14v-6.29a13.14,13.14,0,0,1-4.52,3.88,12.38,12.38,0,0,1-5.87,1.44,12.58,12.58,0,0,1-12.63-12.62V948.49H488v19.62a9.24,9.24,0,0,0,9.29,9.29,9.26,9.26,0,0,0,6.7-2.72,8.86,8.86,0,0,0,2.79-6.57V948.49H511Z"></path><path class="cls-4" d="M496.65,997.67A19.13,19.13,0,0,1,485,994l-.27-.2v-6.61l1.11,1.07a15.5,15.5,0,0,0,11.09,4.3c3.15,0,5.49-.91,7-2.71s2.25-4.43,2.25-7.72v-4.5a13.79,13.79,0,0,1-3.55,2.67,13.05,13.05,0,0,1-6.18,1.52,13.25,13.25,0,0,1-13.28-13.28V947.84h5.54v20.27a8.34,8.34,0,0,0,2.5,6.11,8.25,8.25,0,0,0,6.14,2.53,8.52,8.52,0,0,0,6.24-2.54,8.14,8.14,0,0,0,2.59-6.1V947.84h5.48l.06,34.31a16.38,16.38,0,0,1-3.78,11.16C505.35,996.21,501.57,997.67,496.65,997.67ZM486,993.16a17.88,17.88,0,0,0,10.63,3.2c4.53,0,8-1.31,10.25-3.91a15.14,15.14,0,0,0,3.46-10.3l-.07-33h-2.86v19a9.5,9.5,0,0,1-3,7,9.91,9.91,0,0,1-7.16,2.92,9.9,9.9,0,0,1-10-9.95v-19h-2.92v19.42A12,12,0,0,0,502,979.16a12.57,12.57,0,0,0,4.3-3.69l1.18-1.6v8.28c0,3.6-.85,6.47-2.55,8.55s-4.41,3.19-8,3.19A16.85,16.85,0,0,1,486,990.2Z"></path><path class="cls-4" d="M547.68,952.63a19.25,19.25,0,0,1,0,23.75,14.12,14.12,0,0,1-22.44-1.61l-.13,5.77h-3.85V932.46h4.17v21.61A13.05,13.05,0,0,1,537,947.85,13.44,13.44,0,0,1,547.68,952.63Zm-3.11,21a15.1,15.1,0,0,0,0-18.36,10.78,10.78,0,0,0-15.32-.93,12.65,12.65,0,0,0-3.82,7.11v6a12.65,12.65,0,0,0,3.82,7.12,10.76,10.76,0,0,0,15.32-1Z"></path><path class="cls-4" d="M537,981.84a13.81,13.81,0,0,1-11.12-5.14l-.1,4.5h-5.14V931.81h5.48V952.1A13.58,13.58,0,0,1,537,947.19a14.13,14.13,0,0,1,11.2,5,19.89,19.89,0,0,1,0,24.6A14.09,14.09,0,0,1,537,981.84Zm-12.34-9.18,1.15,1.75a13.46,13.46,0,0,0,21.4,1.54,18.61,18.61,0,0,0,0-22.9h0A12.87,12.87,0,0,0,537,948.5a12.33,12.33,0,0,0-11,5.93l-1.2,1.82V933.12h-2.86v46.77h2.55Zm11.76,5.4a10.86,10.86,0,0,1-7.59-2.93,13.34,13.34,0,0,1-4-7.48V961.5a13.33,13.33,0,0,1,4-7.59,11.44,11.44,0,0,1,16.27,1,15.76,15.76,0,0,1,0,19.2A10.79,10.79,0,0,1,536.39,978.06Zm0-25.77a9.58,9.58,0,0,0-6.7,2.58,12.06,12.06,0,0,0-3.62,6.76l0,5.9a12,12,0,0,0,3.6,6.63,9.54,9.54,0,0,0,6.7,2.59,9.39,9.39,0,0,0,7.67-3.49h0a14.46,14.46,0,0,0,0-17.52A9.48,9.48,0,0,0,536.39,952.29Z"></path><path class="cls-4" d="M587,965.93H561.26a13.2,13.2,0,0,0,3.37,8.36,10.26,10.26,0,0,0,7.85,3.18q6,0,9.49-5.45l2.95,2.11q-4.11,7.05-12.57,7a13.94,13.94,0,0,1-11-4.74,19.14,19.14,0,0,1,0-23.85,13.94,13.94,0,0,1,11-4.74A13.51,13.51,0,0,1,583,952.43q4,4.59,4,11.83C587,965,587,965.54,587,965.93Zm-22.18-11.38a13,13,0,0,0-3.46,8h21.86a13.09,13.09,0,0,0-3.3-8,9.79,9.79,0,0,0-7.47-3A10.15,10.15,0,0,0,564.79,954.55Z"></path><path class="cls-4" d="M572.35,981.84a14.64,14.64,0,0,1-11.52-5,19.83,19.83,0,0,1,0-24.71,14.66,14.66,0,0,1,11.52-5A14.17,14.17,0,0,1,583.52,952a18.07,18.07,0,0,1,4.17,12.26,15.33,15.33,0,0,1-.07,1.74l-.07.58H562a12.4,12.4,0,0,0,3.12,7.26,9.57,9.57,0,0,0,7.38,3c3.77,0,6.7-1.68,8.94-5.15l.37-.58,4,2.87-.3.51C582.63,979.36,578.22,981.84,572.35,981.84Zm0-33.34A13.35,13.35,0,0,0,561.82,953a18.47,18.47,0,0,0,0,23,13.38,13.38,0,0,0,10.53,4.52c5.24,0,9.07-2,11.69-6.22l-1.91-1.37a11.31,11.31,0,0,1-9.65,5.18,11,11,0,0,1-8.33-3.38,14,14,0,0,1-3.54-8.76l-.05-.71h25.8c0-.28,0-.62,0-1a16.77,16.77,0,0,0-3.85-11.4A12.91,12.91,0,0,0,572.35,948.5Zm11.55,14.75H560.6l.08-.72a13.77,13.77,0,0,1,3.64-8.44,10.82,10.82,0,0,1,8.1-3.24,10.41,10.41,0,0,1,7.94,3.25,13.76,13.76,0,0,1,3.48,8.43Zm-21.83-1.31h20.39a12.2,12.2,0,0,0-3.05-6.94,9.06,9.06,0,0,0-7-2.84,9.44,9.44,0,0,0-7.16,2.84h0A12.23,12.23,0,0,0,562.07,961.94Z"></path><path class="cls-4" d="M614.85,949.39l-2,3.07a10.37,10.37,0,0,0-4.36-.83,8.93,8.93,0,0,0-6.63,3,10,10,0,0,0-2.85,7.24v18.72h-4.23v-32h3.91l.19,5.26a13.47,13.47,0,0,1,4.33-4.3,10.23,10.23,0,0,1,5.48-1.6A10.72,10.72,0,0,1,614.85,949.39Z"></path><path class="cls-4" d="M599.67,981.2h-5.54V947.84h5.2l.14,4a14.07,14.07,0,0,1,3.4-3,11.05,11.05,0,0,1,5.83-1.7,11.38,11.38,0,0,1,6.52,1.66l.53.36-2.64,4.09-.52-.24a9.79,9.79,0,0,0-4.09-.77,8.25,8.25,0,0,0-6.16,2.75,9.31,9.31,0,0,0-2.67,6.78Zm-4.23-1.31h2.92V961.82a10.7,10.7,0,0,1,3-7.7,9.65,9.65,0,0,1,7.1-3.14,11.46,11.46,0,0,1,4.11.67l1.33-2.06a11,11,0,0,0-5.24-1.09,9.68,9.68,0,0,0-5.14,1.51,13,13,0,0,0-4.12,4.09l-1.13,1.76-.25-6.72h-2.62Z"></path><path class="cls-4" d="M621.26,979.65a11.22,11.22,0,0,1-5.19-3.85l2.43-2.69a8.53,8.53,0,0,0,4.07,3.17,15.76,15.76,0,0,0,6.13,1.38,9.78,9.78,0,0,0,5.67-1.44,4.78,4.78,0,0,0,2.28-4.2,3.8,3.8,0,0,0-.52-2,6.64,6.64,0,0,0-1.06-1.41,6.1,6.1,0,0,0-1.92-1.12c-.92-.38-1.6-.65-2-.8s-1.29-.4-2.53-.74l-.64-.19c-1.24-.34-2.24-.64-3-.9a22.72,22.72,0,0,1-2.66-1.15,8.8,8.8,0,0,1-2.38-1.64,8.21,8.21,0,0,1-1.47-2.24,7.12,7.12,0,0,1-.64-3,7.63,7.63,0,0,1,3.4-6.53,13.12,13.12,0,0,1,7.88-2.44,16.85,16.85,0,0,1,5.8,1,13.88,13.88,0,0,1,4.59,2.56l-2.5,2.88a11.06,11.06,0,0,0-12.6-1.82,4.14,4.14,0,0,0-2.34,3.81,4.23,4.23,0,0,0,2,3.88,22.32,22.32,0,0,0,6,2.27c1.46.39,2.51.69,3.18.9s1.59.59,2.78,1.12a8.4,8.4,0,0,1,2.63,1.67,9,9,0,0,1,1.54,2.31,7.41,7.41,0,0,1,.71,3.3,8.21,8.21,0,0,1-3.43,6.76,13.52,13.52,0,0,1-8.56,2.66A19.58,19.58,0,0,1,621.26,979.65Z"></path><path class="cls-4" d="M628.89,981.84a20.24,20.24,0,0,1-7.88-1.59,12,12,0,0,1-5.49-4.09l-.28-.42,3.38-3.73.45.77a7.91,7.91,0,0,0,3.77,2.9,15.15,15.15,0,0,0,5.87,1.32,9.27,9.27,0,0,0,5.3-1.33,4.12,4.12,0,0,0,2-3.65,3.08,3.08,0,0,0-.42-1.62,6.75,6.75,0,0,0-1-1.29,5.73,5.73,0,0,0-1.71-1q-1.35-.55-2-.78c-.44-.15-1.27-.39-2.5-.73l-.67-.2c-1.21-.33-2.23-.64-3-.9a23.27,23.27,0,0,1-2.74-1.19,9.45,9.45,0,0,1-2.55-1.76,8.84,8.84,0,0,1-1.59-2.42,7.8,7.8,0,0,1-.71-3.33,8.33,8.33,0,0,1,3.67-7.07,14,14,0,0,1,8.27-2.56,17.65,17.65,0,0,1,6,1.07,14.6,14.6,0,0,1,4.8,2.69l.48.43L637,955.3l-.49-.53a10.44,10.44,0,0,0-11.8-1.7,3.52,3.52,0,0,0-2,3.24,3.58,3.58,0,0,0,1.71,3.32,21.67,21.67,0,0,0,5.82,2.2c1.46.39,2.53.69,3.21.91a30.68,30.68,0,0,1,2.85,1.15,8.74,8.74,0,0,1,2.83,1.81,9.41,9.41,0,0,1,1.66,2.47,8.16,8.16,0,0,1,.77,3.59,8.89,8.89,0,0,1-3.68,7.28A14.22,14.22,0,0,1,628.89,981.84Zm-12-6a11.3,11.3,0,0,0,4.6,3.19,18.9,18.9,0,0,0,7.38,1.49A13,13,0,0,0,637,978a7.54,7.54,0,0,0,3.18-6.25,6.7,6.7,0,0,0-.64-3,8.18,8.18,0,0,0-1.42-2.15,8,8,0,0,0-2.42-1.52c-1.18-.52-2.09-.89-2.73-1.1s-1.7-.5-3.14-.88a23.2,23.2,0,0,1-6.17-2.36,4.86,4.86,0,0,1-2.33-4.43,4.77,4.77,0,0,1,2.68-4.38,10.5,10.5,0,0,1,5.76-1.27,10.81,10.81,0,0,1,7.12,2.7l1.6-1.84a14.18,14.18,0,0,0-3.87-2,16.58,16.58,0,0,0-5.58-1,12.55,12.55,0,0,0-7.5,2.32,6.94,6.94,0,0,0-3.13,6,6.57,6.57,0,0,0,.58,2.77,7.51,7.51,0,0,0,1.36,2.07,8,8,0,0,0,2.19,1.5,20,20,0,0,0,2.58,1.12c.73.25,1.72.55,2.94.89l.65.19c1.25.35,2.1.6,2.56.75s1.15.42,2.09.81a6.87,6.87,0,0,1,2.14,1.27,7.93,7.93,0,0,1,1.16,1.54,4.4,4.4,0,0,1,.6,2.29,5.39,5.39,0,0,1-2.57,4.74,10.57,10.57,0,0,1-6.05,1.55,16.44,16.44,0,0,1-6.37-1.43,10.1,10.1,0,0,1-3.87-2.72Z"></path><path class="cls-4" d="M676.07,965.93H650.36a13.2,13.2,0,0,0,3.37,8.36,10.24,10.24,0,0,0,7.85,3.18q6,0,9.49-5.45l2.95,2.11q-4.11,7.05-12.57,7a14,14,0,0,1-11-4.74,19.17,19.17,0,0,1,0-23.85,14,14,0,0,1,11-4.74,13.47,13.47,0,0,1,10.67,4.58q4,4.59,4,11.83C676.13,965,676.11,965.54,676.07,965.93Zm-22.18-11.38a13.11,13.11,0,0,0-3.47,8h21.86a13,13,0,0,0-3.3-8,9.76,9.76,0,0,0-7.47-3A10.12,10.12,0,0,0,653.89,954.55Z"></path><path class="cls-4" d="M661.45,981.84a14.64,14.64,0,0,1-11.52-5,19.79,19.79,0,0,1,0-24.71,14.64,14.64,0,0,1,11.52-5A14.17,14.17,0,0,1,672.62,952c2.76,3.17,4.16,7.29,4.16,12.26,0,.77,0,1.33-.06,1.74l-.07.58H651.08a12.28,12.28,0,0,0,3.12,7.26,9.57,9.57,0,0,0,7.38,3c3.77,0,6.69-1.68,8.94-5.15l.37-.58,4,2.87-.3.51C671.73,979.36,667.31,981.84,661.45,981.84Zm0-33.34A13.35,13.35,0,0,0,650.92,953a18.47,18.47,0,0,0,0,23,13.38,13.38,0,0,0,10.53,4.52c5.23,0,9.06-2,11.69-6.22l-1.91-1.37a11.33,11.33,0,0,1-9.65,5.18,11,11,0,0,1-8.33-3.38,13.85,13.85,0,0,1-3.54-8.76l-.05-.71h25.8c0-.28,0-.62,0-1a16.77,16.77,0,0,0-3.85-11.4A12.91,12.91,0,0,0,661.45,948.5ZM673,963.25H649.7l.07-.72a13.78,13.78,0,0,1,3.65-8.44,10.8,10.8,0,0,1,8.09-3.24,10.42,10.42,0,0,1,8,3.25,13.76,13.76,0,0,1,3.48,8.43Zm-21.84-1.31h20.39a12.14,12.14,0,0,0-3-6.94,9,9,0,0,0-7-2.84,9.43,9.43,0,0,0-7.15,2.84h0A12.24,12.24,0,0,0,651.16,961.94Z"></path><path class="cls-4" d="M685.58,976.44a19.28,19.28,0,0,1,0-23.85,13.8,13.8,0,0,1,10.93-4.74,13.52,13.52,0,0,1,8.66,2.95v4.36a10.75,10.75,0,0,0-8.27-3.66,10.24,10.24,0,0,0-8.24,3.69,15.49,15.49,0,0,0,0,18.62,10.2,10.2,0,0,0,8.24,3.72,10.72,10.72,0,0,0,8.27-3.59v4.3a13.24,13.24,0,0,1-8.66,2.94A13.8,13.8,0,0,1,685.58,976.44Z"></path><path class="cls-4" d="M696.51,981.84a14.45,14.45,0,0,1-11.42-5,19.9,19.9,0,0,1,0-24.71,14.5,14.5,0,0,1,11.42-5,14.16,14.16,0,0,1,9.06,3.1l.25.19v6.37l-1.14-1.25a10,10,0,0,0-7.78-3.44,9.54,9.54,0,0,0-7.74,3.45,14.83,14.83,0,0,0,0,17.78,9.48,9.48,0,0,0,7.74,3.48,10,10,0,0,0,7.78-3.37l1.14-1.25v6.29l-.24.2A13.86,13.86,0,0,1,696.51,981.84Zm0-33.34A13.2,13.2,0,0,0,686.08,953a18.59,18.59,0,0,0,0,23,13.2,13.2,0,0,0,10.43,4.52,12.64,12.64,0,0,0,8-2.61v-2.43a11.38,11.38,0,0,1-7.61,2.69,10.87,10.87,0,0,1-8.74-3.95,16.15,16.15,0,0,1,0-19.46,10.91,10.91,0,0,1,8.74-3.92,11.3,11.3,0,0,1,7.61,2.76v-2.49A12.91,12.91,0,0,0,696.51,948.5Z"></path><path class="cls-4" d="M740.36,948.49v32h-3.85l-.25-4.87a12.39,12.39,0,0,1-4.52,4,12.55,12.55,0,0,1-5.93,1.47,12.56,12.56,0,0,1-12.63-12.62V948.49h4.23v19.62a9.24,9.24,0,0,0,9.29,9.29,9.26,9.26,0,0,0,6.7-2.72,8.86,8.86,0,0,0,2.79-6.57V948.49Z"></path><path class="cls-4" d="M725.81,981.84a13.25,13.25,0,0,1-13.29-13.28V947.84h5.54v20.27a8.31,8.31,0,0,0,2.51,6.11,8.22,8.22,0,0,0,6.13,2.53,8.54,8.54,0,0,0,6.25-2.54,8.17,8.17,0,0,0,2.59-6.1V947.84H741V981.2h-5.12l-.2-3.75a12.9,12.9,0,0,1-3.65,2.84A13.16,13.16,0,0,1,725.81,981.84Zm-12-32.7v19.42a11.95,11.95,0,0,0,12,12,11.88,11.88,0,0,0,5.62-1.4,11.7,11.7,0,0,0,4.28-3.83l1.1-1.62.32,6.21h2.57V949.14h-2.85v19a9.51,9.51,0,0,1-3,7,9.89,9.89,0,0,1-7.16,2.92,9.92,9.92,0,0,1-10-9.95v-19Z"></path><path class="cls-4" d="M770.68,949.39l-2,3.07a10.4,10.4,0,0,0-4.36-.83,9,9,0,0,0-6.64,3,10,10,0,0,0-2.85,7.24v18.72h-4.23v-32h3.91l.19,5.26a13.67,13.67,0,0,1,4.33-4.3,10.26,10.26,0,0,1,5.48-1.6A10.74,10.74,0,0,1,770.68,949.39Z"></path><path class="cls-4" d="M755.5,981.2H750V947.84h5.19l.15,4a13.88,13.88,0,0,1,3.4-3,11,11,0,0,1,5.82-1.7,11.42,11.42,0,0,1,6.53,1.66l.52.36-2.64,4.09-.52-.24a9.74,9.74,0,0,0-4.08-.77,8.23,8.23,0,0,0-6.16,2.75,9.27,9.27,0,0,0-2.67,6.78Zm-4.23-1.31h2.92V961.82a10.74,10.74,0,0,1,3-7.7,9.65,9.65,0,0,1,7.11-3.14,11.5,11.5,0,0,1,4.11.67l1.32-2.06a11,11,0,0,0-5.24-1.09,9.68,9.68,0,0,0-5.14,1.51,13.18,13.18,0,0,0-4.12,4.09l-1.12,1.76-.25-6.72h-2.62Z"></path><path class="cls-4" d="M775.9,941.47a3.09,3.09,0,1,1,2.21.93A3,3,0,0,1,775.9,941.47Zm.09,7h4.23v32H776Z"></path><path class="cls-4" d="M780.88,981.2h-5.54V947.84h5.54Zm-4.23-1.31h2.92V949.14h-2.92Zm1.46-36.84a3.84,3.84,0,0,1-3.8-3.79,3.8,3.8,0,0,1,7.59,0,3.82,3.82,0,0,1-3.79,3.79Zm0-6.28a2.37,2.37,0,0,0-1.75.74,2.44,2.44,0,0,0,0,3.5h0a2.43,2.43,0,0,0,3.5,0,2.44,2.44,0,0,0,0-3.5A2.37,2.37,0,0,0,778.11,936.77Z"></path><path class="cls-4" d="M805.8,979a7.85,7.85,0,0,1-5.83,2.18,8.31,8.31,0,0,1-6.16-2.3,8.15,8.15,0,0,1-2.3-6v-21h-4.43v-3.33h4.43v-10.9h4.23v10.9H804v3.33h-8.27v21a4.71,4.71,0,0,0,1.15,3.43,4.28,4.28,0,0,0,3.21,1.19,4.4,4.4,0,0,0,3.33-1.35Z"></path><path class="cls-4" d="M800,981.84a9,9,0,0,1-6.62-2.5,8.81,8.81,0,0,1-2.5-6.49V952.48h-4.42v-4.64h4.42v-10.9h5.54v10.9h8.27v4.64h-8.27v20.37a4.13,4.13,0,0,0,1,3,3.6,3.6,0,0,0,2.74,1,3.71,3.71,0,0,0,2.85-1.14l.51-.54,3.22,3.92-.42.42A8.55,8.55,0,0,1,800,981.84Zm-12.23-30.67h4.42v21.68a7.42,7.42,0,0,0,2.12,5.56,7.59,7.59,0,0,0,5.69,2.12,7.38,7.38,0,0,0,4.93-1.59l-1.54-1.87a5.14,5.14,0,0,1-3.26,1,4.94,4.94,0,0,1-3.68-1.38,5.39,5.39,0,0,1-1.34-3.89V951.17h8.27v-2h-8.27V938.25h-2.92v10.89h-4.42Z"></path><path class="cls-4" d="M838.24,982.15a15.69,15.69,0,0,1-3.62,10.73Q831,997,823.88,997a18.38,18.38,0,0,1-11.28-3.53v-4.74a16,16,0,0,0,11.53,4.49c3.38,0,5.87-1,7.47-3s2.41-4.68,2.41-8.14v-6.29a13.23,13.23,0,0,1-4.52,3.88,12.38,12.38,0,0,1-5.87,1.44A12.58,12.58,0,0,1,811,968.56V948.49h4.23v19.62a9.25,9.25,0,0,0,9.3,9.29,9.26,9.26,0,0,0,6.7-2.72,8.86,8.86,0,0,0,2.79-6.57V948.49h4.16Z"></path><path class="cls-4" d="M823.88,997.67A19.13,19.13,0,0,1,812.21,994l-.27-.2v-6.61l1.11,1.07a15.49,15.49,0,0,0,11.08,4.3c3.16,0,5.5-.91,7-2.71s2.25-4.43,2.25-7.72v-4.5a13.67,13.67,0,0,1-3.56,2.67,13,13,0,0,1-6.17,1.52,13.25,13.25,0,0,1-13.28-13.28V947.84h5.54v20.27a8.34,8.34,0,0,0,2.5,6.11,8.23,8.23,0,0,0,6.14,2.53,8.53,8.53,0,0,0,6.24-2.54,8.17,8.17,0,0,0,2.59-6.1V947.84h5.48l.06,34.31a16.38,16.38,0,0,1-3.78,11.16C832.58,996.21,828.8,997.67,823.88,997.67Zm-10.63-4.51a17.86,17.86,0,0,0,10.63,3.2c4.52,0,8-1.31,10.24-3.91a15.1,15.1,0,0,0,3.46-10.3l-.06-33h-2.86v19a9.5,9.5,0,0,1-3,7,9.91,9.91,0,0,1-7.16,2.92,9.9,9.9,0,0,1-9.95-9.95v-19h-2.92v19.42a11.93,11.93,0,0,0,12,12,11.71,11.71,0,0,0,5.56-1.37,12.57,12.57,0,0,0,4.3-3.69l1.18-1.6v8.28c0,3.6-.86,6.47-2.55,8.55s-4.41,3.19-8,3.19a16.82,16.82,0,0,1-10.88-3.69Z"></path><path class="cls-4" d="M865.16,932.46h4.36v44.17h18.14v3.91h-22.5Z"></path><path class="cls-4" d="M888.31,981.2H864.5V931.81h5.67V976h18.14Zm-22.5-1.31H887v-2.6H868.86V933.12h-3.05Z"></path><path class="cls-4" d="M913.07,950.86q3.57,3,3.56,8.72v21h-3.78l-.19-5.25q-6.09,5.9-12.76,5.89a9.44,9.44,0,0,1-7-2.75,9.6,9.6,0,0,1-2.73-7,8.58,8.58,0,0,1,4-7.54q3.95-2.65,12-1.05l6.41,1.21v-4.61q0-4-2.47-5.93a10,10,0,0,0-6.44-2q-6.74,0-9.49,4.94l-3-2.57q3.72-6,12.69-6A13.74,13.74,0,0,1,913.07,950.86Zm-.54,20.58v-4.17l-6.35-1.34q-6.09-1.23-8.91.41a5.27,5.27,0,0,0-2.82,4.84,6.08,6.08,0,0,0,1.73,4.49,6.25,6.25,0,0,0,4.62,1.73Q906.7,977.4,912.53,971.44Z"></path><path class="cls-4" d="M899.9,981.84a10.17,10.17,0,0,1-7.49-3,10.31,10.31,0,0,1-2.91-7.51,9.22,9.22,0,0,1,4.23-8.08c2.77-1.87,7-2.25,12.52-1.16l5.62,1.07v-3.82c0-2.46-.72-4.24-2.22-5.42a9.5,9.5,0,0,0-6-1.81c-4.27,0-7.19,1.5-8.92,4.6l-.39.7-4-3.46.29-.47c2.6-4.2,7.06-6.34,13.25-6.34a14.47,14.47,0,0,1,9.63,3.17h0c2.51,2.13,3.79,5.23,3.79,9.22V981.2h-5.07l-.17-4.47C908.2,980.12,904.11,981.84,899.9,981.84Zm.74-19a11,11,0,0,0-6.18,1.54,7.9,7.9,0,0,0-3.65,7,9,9,0,0,0,2.53,6.59,8.77,8.77,0,0,0,6.56,2.56c4.25,0,8.39-1.92,12.3-5.71l1.06-1,.22,6.1H916V959.58c0-3.63-1.09-6.32-3.33-8.22a13.15,13.15,0,0,0-8.78-2.86c-5.55,0-9.43,1.72-11.83,5.25l1.93,1.69c2-3.05,5.24-4.59,9.65-4.59a10.7,10.7,0,0,1,6.85,2.1c1.8,1.42,2.71,3.59,2.71,6.44v5.4L906,963.43A27.88,27.88,0,0,0,900.64,962.84Zm.16,15.22a6.87,6.87,0,0,1-5.08-1.93,6.7,6.7,0,0,1-1.92-5,5.88,5.88,0,0,1,3.14-5.4c2-1.19,5.11-1.35,9.37-.5l6.87,1.46v5l-.18.19C909,976,904.89,978.06,900.8,978.06Zm.78-12a7.92,7.92,0,0,0-4,.85,4.6,4.6,0,0,0-2.49,4.27,5.42,5.42,0,0,0,1.53,4,5.61,5.61,0,0,0,4.16,1.54c3.67,0,7.39-1.88,11.07-5.58V967.8l-5.82-1.23A23,23,0,0,0,901.58,966.06Z"></path><path class="cls-4" d="M953.17,952.63a19.25,19.25,0,0,1,0,23.75,14.12,14.12,0,0,1-22.44-1.61l-.13,5.77h-3.84V932.46h4.16v21.61a13.05,13.05,0,0,1,11.54-6.22A13.44,13.44,0,0,1,953.17,952.63Zm-3.11,21a15.1,15.1,0,0,0,0-18.36,10.78,10.78,0,0,0-15.32-.93,12.65,12.65,0,0,0-3.82,7.11v6a12.65,12.65,0,0,0,3.82,7.12,10.76,10.76,0,0,0,15.32-1Z"></path><path class="cls-4" d="M942.46,981.84a13.81,13.81,0,0,1-11.12-5.14l-.1,4.5H926.1V931.81h5.48V952.1a13.58,13.58,0,0,1,10.88-4.91,14.13,14.13,0,0,1,11.2,5,19.87,19.87,0,0,1,0,24.6A14.11,14.11,0,0,1,942.46,981.84Zm-12.34-9.18,1.16,1.75A13.45,13.45,0,0,0,952.67,976a18.57,18.57,0,0,0,0-22.9h0a12.85,12.85,0,0,0-10.21-4.55,12.34,12.34,0,0,0-11,5.93l-1.2,1.82V933.12h-2.86v46.77H930Zm11.77,5.4a10.88,10.88,0,0,1-7.6-2.93,13.34,13.34,0,0,1-4-7.48V961.5a13.33,13.33,0,0,1,4-7.59,11.44,11.44,0,0,1,16.27,1,15.76,15.76,0,0,1,0,19.2A10.78,10.78,0,0,1,941.89,978.06Zm0-25.77a9.58,9.58,0,0,0-6.71,2.58,12,12,0,0,0-3.61,6.76v5.9a12,12,0,0,0,3.6,6.63,9.57,9.57,0,0,0,6.71,2.59,9.42,9.42,0,0,0,7.67-3.49h0a14.48,14.48,0,0,0,0-17.52A9.47,9.47,0,0,0,941.89,952.29Z"></path><path class="cls-4" d="M967.2,979.65A11.33,11.33,0,0,1,962,975.8l2.44-2.69a8.43,8.43,0,0,0,4.07,3.17,15.71,15.71,0,0,0,6.12,1.38,9.73,9.73,0,0,0,5.67-1.44,4.78,4.78,0,0,0,2.28-4.2,3.79,3.79,0,0,0-.51-2,7.39,7.39,0,0,0-1.06-1.41,6.22,6.22,0,0,0-1.92-1.12c-.92-.38-1.61-.65-2.06-.8s-1.29-.4-2.53-.74l-.64-.19c-1.24-.34-2.23-.64-3-.9a22.72,22.72,0,0,1-2.66-1.15,8.57,8.57,0,0,1-2.37-1.64,8,8,0,0,1-1.48-2.24,7.12,7.12,0,0,1-.64-3,7.63,7.63,0,0,1,3.4-6.53,13.12,13.12,0,0,1,7.88-2.44,17,17,0,0,1,5.81,1,13.73,13.73,0,0,1,4.58,2.56l-2.5,2.88a11.06,11.06,0,0,0-12.6-1.82,4.14,4.14,0,0,0-2.34,3.81,4.25,4.25,0,0,0,2,3.88,22.55,22.55,0,0,0,6,2.27c1.45.39,2.51.69,3.17.9s1.59.59,2.79,1.12a8.65,8.65,0,0,1,2.63,1.67,9,9,0,0,1,1.53,2.31,7.41,7.41,0,0,1,.71,3.3,8.18,8.18,0,0,1-3.43,6.76,13.52,13.52,0,0,1-8.56,2.66A19.58,19.58,0,0,1,967.2,979.65Z"></path><path class="cls-4" d="M974.83,981.84a20.32,20.32,0,0,1-7.88-1.59,11.93,11.93,0,0,1-5.48-4.09l-.29-.42,3.38-3.73.45.77a7.91,7.91,0,0,0,3.77,2.9,15.19,15.19,0,0,0,5.87,1.32,9.27,9.27,0,0,0,5.3-1.33,4.1,4.1,0,0,0,2-3.65,3,3,0,0,0-.42-1.62,6.74,6.74,0,0,0-1-1.29,5.85,5.85,0,0,0-1.72-1c-.9-.37-1.57-.63-2-.78s-1.28-.39-2.5-.73l-.67-.2c-1.22-.33-2.23-.64-3-.9a21.91,21.91,0,0,1-2.74-1.19,9.29,9.29,0,0,1-2.55-1.76,8.85,8.85,0,0,1-1.6-2.42,7.79,7.79,0,0,1-.7-3.33,8.3,8.3,0,0,1,3.67-7.07,13.94,13.94,0,0,1,8.26-2.56,17.75,17.75,0,0,1,6,1.07,14.55,14.55,0,0,1,4.79,2.69l.49.43-3.4,3.92-.5-.53a10.44,10.44,0,0,0-11.8-1.7,3.51,3.51,0,0,0-2,3.24,3.58,3.58,0,0,0,1.71,3.32,21.58,21.58,0,0,0,5.81,2.2c1.46.39,2.54.69,3.21.91a29.6,29.6,0,0,1,2.85,1.15,8.81,8.81,0,0,1,2.84,1.81,9.39,9.39,0,0,1,1.65,2.47,8,8,0,0,1,.77,3.59,8.86,8.86,0,0,1-3.68,7.28A14.22,14.22,0,0,1,974.83,981.84Zm-12-6a11.34,11.34,0,0,0,4.61,3.19,18.81,18.81,0,0,0,7.37,1.49A13,13,0,0,0,983,978a7.54,7.54,0,0,0,3.18-6.25,6.84,6.84,0,0,0-.64-3,8.44,8.44,0,0,0-1.43-2.15,7.84,7.84,0,0,0-2.42-1.52c-1.17-.52-2.09-.89-2.72-1.1s-1.71-.5-3.14-.88a23.06,23.06,0,0,1-6.17-2.36,4.84,4.84,0,0,1-2.33-4.43,4.78,4.78,0,0,1,2.67-4.38,10.54,10.54,0,0,1,5.77-1.27,10.8,10.8,0,0,1,7.11,2.7l1.61-1.84a14.48,14.48,0,0,0-3.87-2,16.68,16.68,0,0,0-5.59-1,12.55,12.55,0,0,0-7.5,2.32,7,7,0,0,0-3.12,6,6.42,6.42,0,0,0,.58,2.77,7.49,7.49,0,0,0,1.35,2.07,8.15,8.15,0,0,0,2.19,1.5,20.6,20.6,0,0,0,2.58,1.12c.74.25,1.73.55,2.95.89l.64.19c1.25.35,2.11.6,2.56.75s1.16.42,2.1.81a6.93,6.93,0,0,1,2.13,1.27,7.93,7.93,0,0,1,1.16,1.54,4.45,4.45,0,0,1,.6,2.29,5.4,5.4,0,0,1-2.56,4.74,10.57,10.57,0,0,1-6,1.55,16.45,16.45,0,0,1-6.38-1.43,10.18,10.18,0,0,1-3.87-2.72Z"></path><path class="cls-5" d="M1032,61.57c0,20.92-20.2,37.33-46.48,37.33-26,0-46.77-16.41-46.77-37.33,0-20.46,20.76-36.87,46.77-36.87C1011.8,24.7,1032,41.11,1032,61.57Zm-81.62,0C950.38,78,965.32,91,985.79,91c19.92,0,34.59-13,34.59-29.23,0-16.42-14.67-29.68-34.86-29.68S950.38,45.38,950.38,61.57Zm27.94,19.34H967.81V44a111.76,111.76,0,0,1,17.43-1.13c8.58,0,12.45,1.13,15.77,2.7a9.56,9.56,0,0,1,4.43,8.09c0,4-3.88,7.2-9.41,8.55v.45c4.43,1.35,6.92,4,8.3,9,1.38,5.62,2.21,7.87,3.32,9.22H996.31c-1.39-1.35-2.22-4.72-3.6-9-.83-4-3.6-5.85-9.41-5.85h-5ZM978.6,60h5c5.81,0,10.51-1.57,10.51-5.4,0-3.37-3-5.62-9.68-5.62a31.11,31.11,0,0,0-5.81.45Z"></path></g></g></svg>